<mxfile host="app.diagrams.net" modified="2021-07-15T08:09:50.576Z" agent="5.0 (Windows NT 10.0; Win64; x64) AppleWebKit/537.36 (KHTML, like Gecko) Chrome/91.0.4472.124 Safari/537.36" etag="_U7g8aSp2CkEFGOF3_yg" version="14.8.5" type="github">
  <diagram id="Jm2ZBQbnQ4I93eG9E4vA" name="Page-1">
    <mxGraphModel dx="1608" dy="768" grid="1" gridSize="10" guides="1" tooltips="1" connect="1" arrows="1" fold="1" page="1" pageScale="1" pageWidth="827" pageHeight="1169" math="0" shadow="0">
      <root>
        <mxCell id="0" />
        <mxCell id="1" parent="0" />
        <mxCell id="NF9LZqioXR5f_2rSXi6q-2" value="" style="outlineConnect=0;dashed=0;verticalLabelPosition=bottom;verticalAlign=top;align=center;html=1;shape=mxgraph.aws3.disk;fillColor=#7D7C7C;gradientColor=none;" vertex="1" parent="1">
          <mxGeometry x="353" y="130" width="121.63" height="120" as="geometry" />
        </mxCell>
        <mxCell id="NF9LZqioXR5f_2rSXi6q-3" value="&lt;font style=&quot;font-size: 20px&quot;&gt;raid 10&lt;/font&gt;" style="text;html=1;strokeColor=none;fillColor=none;align=center;verticalAlign=middle;whiteSpace=wrap;rounded=0;" vertex="1" parent="1">
          <mxGeometry x="365.69" y="80" width="96.25" height="30" as="geometry" />
        </mxCell>
        <mxCell id="NF9LZqioXR5f_2rSXi6q-4" style="edgeStyle=orthogonalEdgeStyle;rounded=0;orthogonalLoop=1;jettySize=auto;html=1;exitX=0.5;exitY=0;exitDx=0;exitDy=0;exitPerimeter=0;entryX=0.5;entryY=1;entryDx=0;entryDy=0;entryPerimeter=0;" edge="1" parent="1" source="NF9LZqioXR5f_2rSXi6q-5" target="NF9LZqioXR5f_2rSXi6q-2">
          <mxGeometry relative="1" as="geometry" />
        </mxCell>
        <mxCell id="NF9LZqioXR5f_2rSXi6q-5" value="" style="outlineConnect=0;dashed=0;verticalLabelPosition=bottom;verticalAlign=top;align=center;html=1;shape=mxgraph.aws3.disk;fillColor=#7D7C7C;gradientColor=none;" vertex="1" parent="1">
          <mxGeometry x="150" y="290" width="121.63" height="120" as="geometry" />
        </mxCell>
        <mxCell id="NF9LZqioXR5f_2rSXi6q-6" style="edgeStyle=orthogonalEdgeStyle;rounded=0;orthogonalLoop=1;jettySize=auto;html=1;exitX=0.5;exitY=0;exitDx=0;exitDy=0;exitPerimeter=0;entryX=0.5;entryY=1;entryDx=0;entryDy=0;entryPerimeter=0;" edge="1" parent="1" source="NF9LZqioXR5f_2rSXi6q-7" target="NF9LZqioXR5f_2rSXi6q-2">
          <mxGeometry relative="1" as="geometry">
            <Array as="points">
              <mxPoint x="621" y="270" />
              <mxPoint x="414" y="270" />
            </Array>
          </mxGeometry>
        </mxCell>
        <mxCell id="NF9LZqioXR5f_2rSXi6q-7" value="" style="outlineConnect=0;dashed=0;verticalLabelPosition=bottom;verticalAlign=top;align=center;html=1;shape=mxgraph.aws3.disk;fillColor=#7D7C7C;gradientColor=none;" vertex="1" parent="1">
          <mxGeometry x="560" y="295" width="121.63" height="120" as="geometry" />
        </mxCell>
        <mxCell id="NF9LZqioXR5f_2rSXi6q-11" style="edgeStyle=orthogonalEdgeStyle;rounded=0;orthogonalLoop=1;jettySize=auto;html=1;exitX=0.5;exitY=0;exitDx=0;exitDy=0;exitPerimeter=0;entryX=0.5;entryY=1;entryDx=0;entryDy=0;entryPerimeter=0;" edge="1" parent="1" source="NF9LZqioXR5f_2rSXi6q-12" target="NF9LZqioXR5f_2rSXi6q-5">
          <mxGeometry relative="1" as="geometry">
            <Array as="points">
              <mxPoint x="111" y="420" />
              <mxPoint x="211" y="420" />
            </Array>
          </mxGeometry>
        </mxCell>
        <mxCell id="NF9LZqioXR5f_2rSXi6q-12" value="" style="outlineConnect=0;dashed=0;verticalLabelPosition=bottom;verticalAlign=top;align=center;html=1;shape=mxgraph.aws3.disk;fillColor=#7D7C7C;gradientColor=none;" vertex="1" parent="1">
          <mxGeometry x="50" y="440" width="121.63" height="120" as="geometry" />
        </mxCell>
        <mxCell id="NF9LZqioXR5f_2rSXi6q-13" style="edgeStyle=orthogonalEdgeStyle;rounded=0;orthogonalLoop=1;jettySize=auto;html=1;exitX=0.5;exitY=0;exitDx=0;exitDy=0;exitPerimeter=0;" edge="1" parent="1" source="NF9LZqioXR5f_2rSXi6q-14" target="NF9LZqioXR5f_2rSXi6q-5">
          <mxGeometry relative="1" as="geometry">
            <Array as="points">
              <mxPoint x="304" y="420" />
              <mxPoint x="211" y="420" />
            </Array>
          </mxGeometry>
        </mxCell>
        <mxCell id="NF9LZqioXR5f_2rSXi6q-14" value="" style="outlineConnect=0;dashed=0;verticalLabelPosition=bottom;verticalAlign=top;align=center;html=1;shape=mxgraph.aws3.disk;fillColor=#7D7C7C;gradientColor=none;" vertex="1" parent="1">
          <mxGeometry x="243.37" y="440" width="121.63" height="120" as="geometry" />
        </mxCell>
        <mxCell id="NF9LZqioXR5f_2rSXi6q-15" style="edgeStyle=orthogonalEdgeStyle;rounded=0;orthogonalLoop=1;jettySize=auto;html=1;exitX=0.5;exitY=0;exitDx=0;exitDy=0;exitPerimeter=0;" edge="1" parent="1" source="NF9LZqioXR5f_2rSXi6q-16" target="NF9LZqioXR5f_2rSXi6q-7">
          <mxGeometry relative="1" as="geometry">
            <Array as="points">
              <mxPoint x="522" y="420" />
              <mxPoint x="621" y="420" />
            </Array>
          </mxGeometry>
        </mxCell>
        <mxCell id="NF9LZqioXR5f_2rSXi6q-16" value="" style="outlineConnect=0;dashed=0;verticalLabelPosition=bottom;verticalAlign=top;align=center;html=1;shape=mxgraph.aws3.disk;fillColor=#7D7C7C;gradientColor=none;" vertex="1" parent="1">
          <mxGeometry x="461.25" y="440" width="121.63" height="120" as="geometry" />
        </mxCell>
        <mxCell id="NF9LZqioXR5f_2rSXi6q-17" style="edgeStyle=orthogonalEdgeStyle;rounded=0;orthogonalLoop=1;jettySize=auto;html=1;exitX=0.5;exitY=0;exitDx=0;exitDy=0;exitPerimeter=0;entryX=0.5;entryY=1;entryDx=0;entryDy=0;entryPerimeter=0;" edge="1" parent="1" source="NF9LZqioXR5f_2rSXi6q-18" target="NF9LZqioXR5f_2rSXi6q-7">
          <mxGeometry relative="1" as="geometry">
            <Array as="points">
              <mxPoint x="719" y="420" />
              <mxPoint x="621" y="420" />
            </Array>
          </mxGeometry>
        </mxCell>
        <mxCell id="NF9LZqioXR5f_2rSXi6q-18" value="" style="outlineConnect=0;dashed=0;verticalLabelPosition=bottom;verticalAlign=top;align=center;html=1;shape=mxgraph.aws3.disk;fillColor=#7D7C7C;gradientColor=none;" vertex="1" parent="1">
          <mxGeometry x="658.37" y="440" width="121.63" height="120" as="geometry" />
        </mxCell>
        <mxCell id="NF9LZqioXR5f_2rSXi6q-19" value="C" style="rounded=1;whiteSpace=wrap;html=1;fillColor=#ffe6cc;strokeColor=#d79b00;" vertex="1" parent="1">
          <mxGeometry x="80.81" y="615" width="60" height="30" as="geometry" />
        </mxCell>
        <mxCell id="NF9LZqioXR5f_2rSXi6q-20" value="A" style="rounded=1;whiteSpace=wrap;html=1;fillColor=#dae8fc;strokeColor=#6c8ebf;" vertex="1" parent="1">
          <mxGeometry x="80.81" y="585" width="60" height="30" as="geometry" />
        </mxCell>
        <mxCell id="NF9LZqioXR5f_2rSXi6q-21" value="C" style="rounded=1;whiteSpace=wrap;html=1;fillColor=#ffe6cc;strokeColor=#d79b00;" vertex="1" parent="1">
          <mxGeometry x="492.06" y="615" width="60" height="30" as="geometry" />
        </mxCell>
        <mxCell id="NF9LZqioXR5f_2rSXi6q-22" value="A" style="rounded=1;whiteSpace=wrap;html=1;fillColor=#dae8fc;strokeColor=#6c8ebf;" vertex="1" parent="1">
          <mxGeometry x="492.06" y="585" width="60" height="30" as="geometry" />
        </mxCell>
        <mxCell id="NF9LZqioXR5f_2rSXi6q-23" value="B" style="rounded=1;whiteSpace=wrap;html=1;fillColor=#d5e8d4;strokeColor=#82b366;" vertex="1" parent="1">
          <mxGeometry x="274.18" y="585" width="60" height="30" as="geometry" />
        </mxCell>
        <mxCell id="NF9LZqioXR5f_2rSXi6q-24" value="D" style="rounded=1;whiteSpace=wrap;html=1;fillColor=#f8cecc;strokeColor=#b85450;" vertex="1" parent="1">
          <mxGeometry x="274.18" y="615" width="60" height="30" as="geometry" />
        </mxCell>
        <mxCell id="NF9LZqioXR5f_2rSXi6q-25" value="B" style="rounded=1;whiteSpace=wrap;html=1;fillColor=#d5e8d4;strokeColor=#82b366;" vertex="1" parent="1">
          <mxGeometry x="689.18" y="585" width="60" height="30" as="geometry" />
        </mxCell>
        <mxCell id="NF9LZqioXR5f_2rSXi6q-26" value="D" style="rounded=1;whiteSpace=wrap;html=1;fillColor=#f8cecc;strokeColor=#b85450;" vertex="1" parent="1">
          <mxGeometry x="689.18" y="615" width="60" height="30" as="geometry" />
        </mxCell>
        <mxCell id="NF9LZqioXR5f_2rSXi6q-27" value="&lt;font style=&quot;font-size: 20px&quot;&gt;raid 1&lt;/font&gt;" style="text;html=1;strokeColor=none;fillColor=none;align=center;verticalAlign=middle;whiteSpace=wrap;rounded=0;strokeWidth=8;" vertex="1" parent="1">
          <mxGeometry x="378.82" y="295" width="70" height="20" as="geometry" />
        </mxCell>
        <mxCell id="NF9LZqioXR5f_2rSXi6q-28" value="&lt;font style=&quot;font-size: 20px&quot;&gt;raid 0&lt;/font&gt;" style="text;html=1;strokeColor=none;fillColor=none;align=center;verticalAlign=middle;whiteSpace=wrap;rounded=0;strokeWidth=8;" vertex="1" parent="1">
          <mxGeometry x="175.82" y="440" width="70" height="20" as="geometry" />
        </mxCell>
        <mxCell id="NF9LZqioXR5f_2rSXi6q-29" value="&lt;font style=&quot;font-size: 20px&quot;&gt;raid 0&lt;/font&gt;" style="text;html=1;strokeColor=none;fillColor=none;align=center;verticalAlign=middle;whiteSpace=wrap;rounded=0;strokeWidth=8;" vertex="1" parent="1">
          <mxGeometry x="585.8199999999999" y="440" width="70" height="20" as="geometry" />
        </mxCell>
        <mxCell id="NF9LZqioXR5f_2rSXi6q-30" value="A" style="rounded=1;whiteSpace=wrap;html=1;fillColor=#dae8fc;strokeColor=#6c8ebf;" vertex="1" parent="1">
          <mxGeometry x="510" y="130" width="60" height="30" as="geometry" />
        </mxCell>
        <mxCell id="NF9LZqioXR5f_2rSXi6q-31" value="C" style="rounded=1;whiteSpace=wrap;html=1;fillColor=#ffe6cc;strokeColor=#d79b00;" vertex="1" parent="1">
          <mxGeometry x="510" y="190" width="60" height="30" as="geometry" />
        </mxCell>
        <mxCell id="NF9LZqioXR5f_2rSXi6q-32" value="B" style="rounded=1;whiteSpace=wrap;html=1;fillColor=#d5e8d4;strokeColor=#82b366;" vertex="1" parent="1">
          <mxGeometry x="510" y="160" width="60" height="30" as="geometry" />
        </mxCell>
        <mxCell id="NF9LZqioXR5f_2rSXi6q-33" value="D" style="rounded=1;whiteSpace=wrap;html=1;fillColor=#f8cecc;strokeColor=#b85450;" vertex="1" parent="1">
          <mxGeometry x="510" y="220" width="60" height="30" as="geometry" />
        </mxCell>
        <mxCell id="NF9LZqioXR5f_2rSXi6q-34" value="A" style="rounded=1;whiteSpace=wrap;html=1;fillColor=#dae8fc;strokeColor=#6c8ebf;" vertex="1" parent="1">
          <mxGeometry x="60" y="290" width="60" height="30" as="geometry" />
        </mxCell>
        <mxCell id="NF9LZqioXR5f_2rSXi6q-35" value="C" style="rounded=1;whiteSpace=wrap;html=1;fillColor=#ffe6cc;strokeColor=#d79b00;" vertex="1" parent="1">
          <mxGeometry x="60" y="350" width="60" height="30" as="geometry" />
        </mxCell>
        <mxCell id="NF9LZqioXR5f_2rSXi6q-36" value="B" style="rounded=1;whiteSpace=wrap;html=1;fillColor=#d5e8d4;strokeColor=#82b366;" vertex="1" parent="1">
          <mxGeometry x="60" y="320" width="60" height="30" as="geometry" />
        </mxCell>
        <mxCell id="NF9LZqioXR5f_2rSXi6q-37" value="D" style="rounded=1;whiteSpace=wrap;html=1;fillColor=#f8cecc;strokeColor=#b85450;" vertex="1" parent="1">
          <mxGeometry x="60" y="380" width="60" height="30" as="geometry" />
        </mxCell>
        <mxCell id="NF9LZqioXR5f_2rSXi6q-38" value="A" style="rounded=1;whiteSpace=wrap;html=1;fillColor=#dae8fc;strokeColor=#6c8ebf;" vertex="1" parent="1">
          <mxGeometry x="720" y="290" width="60" height="30" as="geometry" />
        </mxCell>
        <mxCell id="NF9LZqioXR5f_2rSXi6q-39" value="C" style="rounded=1;whiteSpace=wrap;html=1;fillColor=#ffe6cc;strokeColor=#d79b00;" vertex="1" parent="1">
          <mxGeometry x="720" y="350" width="60" height="30" as="geometry" />
        </mxCell>
        <mxCell id="NF9LZqioXR5f_2rSXi6q-40" value="B" style="rounded=1;whiteSpace=wrap;html=1;fillColor=#d5e8d4;strokeColor=#82b366;" vertex="1" parent="1">
          <mxGeometry x="720" y="320" width="60" height="30" as="geometry" />
        </mxCell>
        <mxCell id="NF9LZqioXR5f_2rSXi6q-41" value="D" style="rounded=1;whiteSpace=wrap;html=1;fillColor=#f8cecc;strokeColor=#b85450;" vertex="1" parent="1">
          <mxGeometry x="720" y="380" width="60" height="30" as="geometry" />
        </mxCell>
      </root>
    </mxGraphModel>
  </diagram>
</mxfile>
